<?xml version="1.0" encoding="UTF-8"?>
<svg width="75px" height="75px" viewBox="0 0 75 75" version="1.1" xmlns="http://www.w3.org/2000/svg" xmlns:xlink="http://www.w3.org/1999/xlink">
    <title>9BF3746F-E190-499C-BB28-A0B31DD9F8E4</title>
    <g id="Design---Main" stroke="none" stroke-width="1" fill="none" fill-rule="evenodd">
        <g id="01-Home" transform="translate(-408.000000, -1994.000000)">
            <g id="Brand-Values" transform="translate(0.000000, 1704.000000)">
                <g id="exe_we-never-stop_rgb" transform="translate(408.000000, 290.000000)">
                    <g id="Group" transform="translate(5.303030, 6.060606)" fill-rule="nonzero">
                        <path d="M45.1590909,24.6439394 L45.0681818,24.6439394 C43.8939394,24.6439394 42.6212121,23.8863636 41.1893939,22.469697 C39.7575758,21.0530303 39.0151515,19.7348485 38.9848485,18.5606061 C39.0371181,17.182207 39.6633905,15.88846 40.7121212,14.9924242 C41.5954818,13.9722765 42.8635041,13.3657118 44.2121212,13.3181818 C45.4090909,13.3181818 46.6969697,14.0757576 48.1590909,15.5075758 C49.6212121,16.9393939 50.2954545,18.219697 50.3106061,19.4166667 C50.2585675,20.7641731 49.6528171,22.0304929 48.6363636,22.9166667 C47.7556631,23.9352561 46.5028534,24.5575668 45.1590909,24.6439394 L45.1590909,24.6439394 Z M44.1590909,15.7424242 C43.479818,15.8318142 42.8597858,16.1756748 42.4242424,16.7045455 C41.8822019,17.1593154 41.5218737,17.7939232 41.4090909,18.4924242 C41.4090909,18.7272727 41.5757576,19.4242424 42.9242424,20.7651515 C44.2727273,22.1060606 44.9166667,22.219697 45.1515152,22.2272727 C45.8421086,22.104266 46.468639,21.7454836 46.9242424,21.2121212 C47.4606024,20.7730865 47.8055472,20.142951 47.8863636,19.4545455 C47.8863636,19.219697 47.7348485,18.5227273 46.4393939,17.2272727 C45.1439394,15.9318182 44.4166667,15.75 44.1666667,15.75 L44.1590909,15.7424242 Z" id="Shape" fill="#E8412D"></path>
                        <path d="M63.3939394,0.295454545 L63.3939394,0.159090909 L60.969697,0.234848485 L60.969697,0.234848485 C52.5872793,0.353781027 44.5919123,3.78231204 38.7272727,9.77272727 L21.7651515,26.7424242 L8.33333333,26.719697 L0.409090909,34.6212121 L9.9469697,44.1590909 L0.21969697,47.1893939 L16.4242424,63.4090909 L19.4545455,53.6742424 L29.0378788,63.2424242 L36.9318182,55.3409091 L36.9318182,41.9621212 L53.9166667,25 C59.9120928,19.1245535 63.3360776,11.1134644 63.4393939,2.71969697 L63.4393939,2.71969697 L63.5151515,0.295454545 L63.3939394,0.295454545 Z M9.31818182,29.1439394 L19.3409091,29.1439394 L8.86363636,39.6363636 L3.84090909,34.6212121 L9.31818182,29.1439394 Z M17.5378788,51.7424242 L15.3106061,58.8636364 L4.76515152,48.3181818 L11.8863636,46.0909091 L17.5378788,51.7424242 Z M34.5075758,54.3333333 L29.0378788,59.8484848 L24.0454545,54.8636364 L34.4924242,44.3787879 L34.5075758,54.3333333 Z M52.1969697,23.2727273 L34.8484848,40.6060606 L34.8484848,40.6060606 L22.3333333,53.1136364 L10.6060606,41.3560606 L40.4393939,11.4848485 C45.862904,5.94245362 53.2612776,2.77444606 61.0151515,2.67424242 C60.9137735,10.4293837 57.7428458,17.8282151 52.1969697,23.25 L52.1969697,23.2727273 Z" id="Shape" fill="#0F283D"></path>
                    </g>
                    <rect id="Rectangle" x="0.303030303" y="0" width="74.6893939" height="74.6893939"></rect>
                </g>
            </g>
        </g>
    </g>
</svg>