<?xml version="1.0" encoding="UTF-8"?>
<svg width="75px" height="75px" viewBox="0 0 75 75" version="1.1" xmlns="http://www.w3.org/2000/svg" xmlns:xlink="http://www.w3.org/1999/xlink">
    <title>450A2C42-0E99-47CC-8757-D8FB004E4788</title>
    <g id="Design---Main" stroke="none" stroke-width="1" fill="none" fill-rule="evenodd">
        <g id="02-Company/Philosophy" transform="translate(-1206.000000, -934.000000)">
            <g id="Values" transform="translate(244.000000, 522.000000)">
                <g id="Group" transform="translate(0.000000, 77.000000)">
                    <g id="we-respect" transform="translate(808.000000, 310.000000)">
                        <g id="Tederic-Icons/POSITIVE/128/exe_we-respect" transform="translate(154.000000, 25.000000)">
                            <g id="exe_we-respect_rgb-copy">
                                <rect id="Rectangle" x="0.303030303" y="0" width="74.6893939" height="74.6893939"></rect>
                                <g id="Group" transform="translate(9.848485, 9.676847)" fill-rule="nonzero">
                                    <path d="M46.469697,59.3610322 L45.6212121,58.5049716 C45.5454545,58.4367898 38.5984848,51.5883049 33.9318182,46.9216383 C32,44.9898201 31.5151515,41.5504261 32.7575758,38.5883049 C33.8032958,35.7788713 36.4871115,33.9171253 39.4848485,33.9216383 C42.1586866,33.8900562 44.7108216,35.03727 46.4621212,37.0580019 C48.2249786,35.0441549 50.7782176,33.8989317 53.4545455,33.9216383 C56.4522825,33.9171253 59.1360982,35.7788713 60.1818182,38.5883049 C61.4166667,41.618608 60.9393939,45.0201231 59,46.9216383 C54.3333333,51.6034564 47.3863636,58.4519413 47.3181818,58.5049716 L46.469697,59.3610322 Z M39.4848485,36.3305442 C37.4759035,36.3480394 35.6885516,37.6100548 35,39.4973958 C34.1363636,41.5807292 34.4090909,43.9822443 35.6515152,45.2246686 C39.3409091,48.9140625 44.4621212,53.959517 46.469697,55.9519413 C48.4848485,53.959517 53.5984848,48.9140625 57.2878788,45.2246686 L57.2878788,45.2246686 C58.530303,43.9822443 58.8030303,41.5807292 57.9393939,39.4973958 C57.2508423,37.6100548 55.4634904,36.3480394 53.4545455,36.3305442 C51.0303988,36.3203311 48.7797423,37.5866851 47.530303,39.6640625 L47.1893939,40.3004261 L45.7272727,40.3004261 L45.3863636,39.648911 C44.1461024,37.5752974 41.9010037,36.3129697 39.4848485,36.3305442 Z" id="Shape" fill="#E8412D"></path>
                                    <path d="M37.75,50.7322443 C34.6093167,52.09705 31.2198478,52.7960957 27.7954545,52.7852746 C14.0788884,52.7663597 2.90841636,41.7576808 2.68939394,28.0428504 L4.24242424,29.5958807 C4.49943288,29.8477956 4.85355098,29.9750568 5.21212121,29.9443655 L16.6666667,28.9064867 L13.6363636,33.9216383 C13.5216401,34.1140296 13.4614092,34.3340032 13.4621212,34.5580019 L13.4621212,36.9973958 C13.4621212,37.3789198 13.6417505,37.7381784 13.9469697,37.9670928 L17.8560606,40.898911 L19.3712121,48.9822443 C19.4612334,49.5679956 19.8844952,50.047495 20.4545455,50.209517 C20.5826932,50.2457192 20.7153256,50.2635736 20.8484848,50.2625473 C21.3135299,50.2668912 21.754809,50.0574233 22.0454545,49.6943655 L25.469697,45.5731534 C25.5770203,45.4441662 25.6569292,45.2946591 25.7045455,45.1337595 L27.7727273,37.8155777 C27.7989148,37.7667021 27.8216963,37.7160767 27.8409091,37.6640625 L30.5984848,33.0655777 C30.9185377,32.5356966 30.7878888,31.8497902 30.2954545,31.4746686 L26.9242424,28.898911 C26.7675494,28.7766451 26.5825519,28.6958715 26.3863636,28.6640625 L20.1060606,27.618608 L17.9772727,21.148911 L22.2878788,16.8383049 L22.9545455,17.5049716 C23.2709059,17.820968 23.7355427,17.9371306 24.1633903,17.8071917 C24.5912379,17.6772528 24.9128008,17.3223184 25,16.8837595 L26.719697,8.22466856 C26.7670429,7.96731504 26.7298358,7.70154999 26.6136364,7.4670928 L24.2954545,2.83072917 C25.4549562,2.66674632 26.6244173,2.58321338 27.7954545,2.58072917 C33.8516731,2.56774283 39.7067089,4.75362287 44.2727273,8.73224432 L43.219697,12.1034564 C43.2003811,12.1650635 43.1876832,12.2285531 43.1818182,12.2928504 L39.1893939,18.3155777 C38.9484788,18.6801329 38.9224287,19.14614 39.1212121,19.5352746 L40.8106061,22.898911 C40.9657692,23.2038868 41.2398432,23.4313682 41.5681818,23.5276989 L49.8560606,25.5655777 C49.9150489,25.6502473 49.9682022,25.7388361 50.0151515,25.8307292 L50.219697,26.1867898 L52.75,30.1564867 C52.6224646,31.4599886 52.3945149,32.7517032 52.0681818,34.0201231 C52.517898,33.9619169 52.9707812,33.931556 53.4242424,33.929214 C53.8073893,33.928462 54.1899629,33.9588652 54.5681818,34.0201231 C54.8629115,32.7427652 55.0704607,31.4468481 55.1893939,30.1413352 C55.1971424,30.0531212 55.1971424,29.9643977 55.1893939,29.8761837 C55.2424242,29.118608 55.2804299,28.4216383 55.2804299,27.6943655 C55.3033173,20.115989 52.1944818,12.8647809 46.6893939,7.65648674 C46.5844385,7.4860399 46.4351955,7.34727011 46.2575758,7.25497159 C41.2049568,2.66424424 34.6221464,0.122420436 27.7954545,0.126179539 C25.9328993,0.127642965 24.0751627,0.315446939 22.25,0.686789773 L22.1287879,0.686789773 C10.3573684,3.18535823 1.56062615,13.0211581 0.386363636,24.9973958 C0.378545331,25.0678868 0.378545331,25.1390261 0.386363636,25.209517 C0.310606061,26.0125473 0.272727273,26.8155777 0.272727273,27.6413352 C0.276876636,42.8473626 12.5894548,55.1802753 27.7954545,55.2095778 C31.8735699,55.2181229 35.9017023,54.312052 39.5833333,52.5580019 L37.75,50.7322443 Z M45.3939394,13.2019413 C45.434491,13.127126 45.4674824,13.0484541 45.4924242,12.9670928 L46.25,10.6261837 C50.0862718,14.7607723 52.4117126,20.0711072 52.8484848,25.6943655 L52.3181818,24.8610322 C52.2727273,24.7928504 52.2348485,24.7170928 52.1893939,24.6413352 C51.8830403,23.9172681 51.254827,23.3787996 50.4924242,23.1867898 L42.719697,21.2776989 L41.5681818,19.0049716 L45.1818182,13.5580019 C45.268501,13.4495916 45.3398756,13.3297842 45.3939394,13.2019413 Z M18.8333333,29.9519413 L18.9393939,29.7625473 C19.159272,29.8801088 19.3975001,29.9595182 19.6439394,29.9973958 L25.7045455,31.0049716 L27.9772727,32.7473958 L25.7575758,36.3761837 C25.6804161,36.4883874 25.6192247,36.6107702 25.5757576,36.7398201 C25.5302329,36.822098 25.4922009,36.9083039 25.4621212,36.9973958 L23.4166667,44.2246686 L21.3333333,46.7322443 L20.1590909,40.3231534 C20.0485091,39.7898648 19.7500971,39.3140187 19.3181818,38.9822443 L15.8333333,36.368608 L15.8333333,34.8534564 L18.8333333,29.9519413 Z M21.8636364,3.27769886 L24.2424242,8.14891098 L22.9848485,14.4822443 C22.151339,14.2157616 21.2387948,14.438048 20.6212121,15.0580019 L16.2121212,19.4822443 C15.6006396,20.1047849 15.3847465,21.0150371 15.6515152,21.8458807 L17.1666667,26.5049716 C16.9807464,26.4783462 16.7919809,26.4783462 16.6060606,26.5049716 L5.5530303,27.4443655 L2.85606061,24.7473958 C4.0892663,14.337841 11.6473621,5.78367031 21.8257576,3.27769886 L21.8636364,3.27769886 Z" id="Shape" fill="#0F283D"></path>
                                </g>
                            </g>
                        </g>
                    </g>
                </g>
            </g>
        </g>
    </g>
</svg>