<?xml version="1.0" encoding="UTF-8"?>
<svg width="75px" height="75px" viewBox="0 0 75 75" version="1.1" xmlns="http://www.w3.org/2000/svg" xmlns:xlink="http://www.w3.org/1999/xlink">
    <title>4B040132-B24C-46C6-9CD6-876BD2A006CA</title>
    <g id="Design---Main" stroke="none" stroke-width="1" fill="none" fill-rule="evenodd">
        <g id="02-Company/Philosophy" transform="translate(-400.000000, -934.000000)">
            <g id="Values" transform="translate(244.000000, 522.000000)">
                <g id="Group" transform="translate(0.000000, 77.000000)">
                    <g id="we-keep-our-promises" transform="translate(0.000000, 310.000000)">
                        <g id="Tederic-Icons/POSITIVE/64/exe_we-keep-our-promises" transform="translate(156.000000, 25.000000)">
                            <g id="exe_we-keep-our-promises_rgb">
                                <rect id="Rectangle" x="0.303030303" y="0" width="74.6893939" height="74.6893939"></rect>
                                <g id="Group" transform="translate(6.060606, 18.181818)" fill-rule="nonzero">
                                    <path d="M52.0757576,25.4242424 L48.0378788,28.25 C48.01793,28.2703602 47.9906255,28.2818336 47.9621212,28.2818336 C47.9336169,28.2818336 47.9063125,28.2703602 47.8863636,28.25 L38.5378788,18.6287879 C36.0808661,16.093509 32.0787441,15.8980411 29.3863636,18.1818182 C26.8484848,20.1666667 24.2727273,21.1515152 22.4924242,20.8181818 C21.8504741,20.7141523 21.2772387,20.3565626 20.9015152,19.8257576 C21.1296711,19.5993939 21.3839894,19.4010256 21.6590909,19.2348485 L35.0681818,9.76515152 C36.1157514,9.02327896 37.3540846,8.59735545 38.6363636,8.53787879 L42.4242424,8.33333333 L41.0909091,5.96969697 L38.5075758,6.10606061 C36.7858638,6.19636918 35.1253278,6.77440387 33.719697,7.77272727 L20.3181818,17.2121212 C19.1136364,17.969697 18.4772727,18.7727273 18.3863636,19.6287879 C18.3275657,20.0767446 18.4442938,20.5300838 18.7121212,20.8939394 C19.4403228,22.0997693 20.6569469,22.9292857 22.0454545,23.1666667 C24.5378788,23.6439394 27.7575758,22.5075758 30.9015152,20.0454545 C33.8863636,17.5984848 36.5378788,20.0454545 36.8181818,20.3106061 L46.1439394,29.9242424 C47.0109064,30.8230774 48.4039779,30.9549848 49.4242424,30.2348485 L53.280303,27.5454545 L52.0757576,25.4242424 Z" id="Path" fill="#E8412D"></path>
                                    <g fill="#0F283D" id="Shape">
                                        <path d="M50.4090909,0.333333333 L40.9090909,5.71969697 L53.6136364,28.1363636 L63.1136364,22.7272727 L50.4090909,0.333333333 Z M44.2121212,6.63636364 L49.5151515,3.64393939 L59.8484848,21.8333333 L54.5454545,24.8636364 L44.2121212,6.63636364 Z"></path>
                                        <path d="M47.969697,30.6969697 C47.4520924,30.6979536 46.9467887,30.5392194 46.5227273,30.2424242 C46.5400001,30.5117001 46.465199,30.7788466 46.3106061,31 C45.9362702,31.546331 45.1975985,31.7000816 44.6363636,31.3484848 L42.8257576,29.9242424 C42.3231274,29.527251 41.5983827,29.5898303 41.1712424,30.0671044 C40.7441022,30.5443785 40.7620087,31.2715995 41.2121212,31.7272727 L41.8106061,32.3484848 C42.23955,32.7691334 42.3035042,33.4374541 41.9621212,33.9318182 C41.7864609,34.1943421 41.5141516,34.3767893 41.2045455,34.4393939 C40.8814751,34.4993006 40.5479259,34.4254823 40.280303,34.2348485 L40.280303,34.2348485 L38.8333333,33.2272727 L38.8333333,33.2272727 L38.8333333,33.2272727 L38.780303,33.2272727 C38.2214022,32.8764907 37.4851689,33.0304303 37.1136364,33.5757576 C36.7468389,34.1166744 36.8817266,34.8518123 37.4166667,35.2272727 L37.5984848,35.3939394 C38.0274288,35.814588 38.0913829,36.4829087 37.75,36.9772727 C37.5625372,37.2486816 37.2725597,37.4319693 36.9469697,37.4848485 C36.6180754,37.5424445 36.2798084,37.4660617 36.0075758,37.2727273 L34.6742424,36.3636364 C34.1546143,36.0350825 33.4713115,36.1475761 33.084434,36.6253698 C32.6975565,37.1031635 32.7296442,37.7949206 33.1590909,38.2348485 C33.554338,38.6840945 33.5706226,39.3520729 33.1977363,39.8200452 C32.82485,40.2880176 32.1701031,40.4213094 31.6439394,40.1363636 L11.1893939,25.3181818 L20.6590909,8.33333333 L24.3409091,8.52272727 C25.6061602,8.58545425 26.8276713,9.00575913 27.8636364,9.73484848 L29.3787879,10.8106061 L31.4772727,9.29545455 C30.780303,8.79545455 29.7348485,8.06060606 29.2575758,7.72727273 C27.8489655,6.73029011 26.1856779,6.15483987 24.4621212,6.06818182 L21.969697,5.98484848 L22.1742424,5.62121212 L12.6515152,0.318181818 L0.0606060606,22.7272727 L9.59090909,28.030303 L9.9469697,27.3939394 L30.1969697,42.1212121 C30.9921718,42.6771442 31.9759341,42.8937356 32.931086,42.7231728 C33.886238,42.5526099 34.7342355,42.0089185 35.2878788,41.2121212 C35.5930545,40.782598 35.7999679,40.2911786 35.8939394,39.7727273 C36.8627637,39.9696335 37.8700495,39.7669693 38.6873364,39.2107008 C39.5046233,38.6544322 40.0626489,37.7917011 40.2348485,36.8181818 C40.6830184,36.9016182 41.1427392,36.9016182 41.5909091,36.8181818 C42.5483513,36.6512626 43.3978819,36.1049406 43.9469697,35.3030303 C44.2508021,34.8699619 44.4575337,34.3763901 44.5530303,33.8560606 C45.0106684,33.9470932 45.4817558,33.9470932 45.9393939,33.8560606 C46.8943201,33.6827266 47.7415739,33.1378688 48.2954545,32.3409091 C48.6792821,31.7837409 48.899699,31.1303623 48.9318182,30.4545455 C48.6303895,30.5984367 48.3033195,30.680848 47.969697,30.6969697 Z M8.65909091,24.7954545 L3.35606061,21.8257576 L13.5833333,3.58333333 L18.8863636,6.5530303 L8.65909091,24.7954545 Z"></path>
                                    </g>
                                </g>
                            </g>
                        </g>
                    </g>
                </g>
            </g>
        </g>
    </g>
</svg>