<?xml version="1.0" encoding="UTF-8"?>
<svg width="61px" height="60px" viewBox="0 0 61 60" version="1.1" xmlns="http://www.w3.org/2000/svg" xmlns:xlink="http://www.w3.org/1999/xlink">
    <title>2884A0CD-18D7-4956-B535-B8DC15D35316</title>
    <g id="Design---Main" stroke="none" stroke-width="1" fill="none" fill-rule="evenodd">
        <g id="02-Company/Philosophy" transform="translate(-810.000000, -951.000000)">
            <g id="Values" transform="translate(244.000000, 522.000000)">
                <g id="Group" transform="translate(0.000000, 77.000000)">
                    <g id="we-deliver-flexibility" transform="translate(405.000000, 310.000000)">
                        <g id="Tederic-Icons/POSITIVE/128/exe_we-deliver-flexibility" transform="translate(161.000000, 42.000000)">
                            <g id="exe_we-deliver-flexibility_rgb-copy">
                                <g id="Group" transform="translate(4.929293, 4.848485)" fill-rule="nonzero">
                                    <path d="M32.7489899,31.969697 L18.6265657,31.969697 L18.6265657,18.0848485 L32.7489899,18.0848485 L32.7489899,31.969697 Z M20.5982828,30.030303 L30.8080808,30.030303 L30.8080808,20 L20.5982828,20 L20.5982828,30.030303 Z" id="Shape" fill="#E8412D"></path>
                                    <g fill="#0F283D" id="Path">
                                        <polygon points="13.5432323 2.0969697 13.5432323 0.157575758 0.406666667 0.157575758 0.406666667 13.0787879 2.37838384 13.0787879 2.37838384 3.46666667 12.8408081 13.7636364 14.2394949 12.3939394 3.77090909 2.0969697"></polygon>
                                        <polygon points="37.8384848 0.157575758 37.8384848 2.0969697 47.6046465 2.0969697 37.1422222 12.3939394 38.5347475 13.7636364 49.0033333 3.46666667 49.0033333 13.0787879 50.9750505 13.0787879 50.9750505 0.157575758"></polygon>
                                        <polygon points="49.0033333 46.5878788 38.5347475 36.2909091 37.1422222 37.6606061 47.6046465 47.9575758 37.8384848 47.9575758 37.8384848 49.8969697 50.9750505 49.8969697 50.9750505 36.9757576 49.0033333 36.9757576"></polygon>
                                        <polygon points="12.8408081 36.2909091 2.37838384 46.5878788 2.37838384 36.9757576 0.406666667 36.9757576 0.406666667 49.8969697 13.5432323 49.8969697 13.5432323 47.9575758 3.77090909 47.9575758 14.2394949 37.6606061"></polygon>
                                    </g>
                                </g>
                                <rect id="Rectangle" x="0.246464646" y="0" width="60.7473737" height="59.7515152"></rect>
                            </g>
                        </g>
                    </g>
                </g>
            </g>
        </g>
    </g>
</svg>