<?xml version="1.0" encoding="UTF-8"?>
<svg width="75px" height="75px" viewBox="0 0 75 75" version="1.1" xmlns="http://www.w3.org/2000/svg" xmlns:xlink="http://www.w3.org/1999/xlink">
    <title>C90FC7F1-1CE8-43BE-8E1C-454F91F4BFA5</title>
    <g id="Design---Main" stroke="none" stroke-width="1" fill="none" fill-rule="evenodd">
        <g id="01-Home" transform="translate(-1198.000000, -1994.000000)">
            <g id="Brand-Values" transform="translate(0.000000, 1704.000000)">
                <g id="exe_we-embrace-design_rgb-copy" transform="translate(1198.000000, 290.000000)">
                    <g id="Group" transform="translate(6.060606, 13.636364)" fill-rule="nonzero">
                        <path d="M47.0227273,0.0909090909 L16.1439394,0.0909090909 L0.0833333333,16.1136364 L31.5833333,55.5075758 L63.0833333,16.1136364 L47.0227273,0.0909090909 Z M15.8333333,17.4621212 L27.4166667,46.4318182 L4.27272727,17.469697 L15.8333333,17.4621212 Z M18.4469697,17.4621212 L58.9469697,17.4621212 L31.9393939,51.2045455 L18.4469697,17.4621212 Z M58.5151515,15.0151515 L18.6060606,15.0151515 L24.9242424,2.51515152 L46.0227273,2.51515152 L58.5151515,15.0151515 Z M17.1515152,2.51515152 L22.2121212,2.51515152 L15.9090909,15.0378788 L4.59848485,15.0378788 L17.1515152,2.51515152 Z" id="Shape" fill="#0F283D"></path>
                        <polygon id="Path" fill="#E8412D" points="31.2348485 51.1969697 31.5833333 51.6439394 35.75 46.4393939 47.8484848 16.1742424 40.9621212 2.51515152 38.2424242 2.51515152 45.1969697 16.2878788"></polygon>
                    </g>
                    <rect id="Rectangle" x="0.303030303" y="0" width="74.6893939" height="74.6893939"></rect>
                </g>
            </g>
        </g>
    </g>
</svg>