<?xml version="1.0" encoding="UTF-8"?>
<svg width="75px" height="75px" viewBox="0 0 75 75" version="1.1" xmlns="http://www.w3.org/2000/svg" xmlns:xlink="http://www.w3.org/1999/xlink">
    <title>F7DE6EA5-CE0E-4756-A5A0-06E6B8A19890</title>
    <g id="Design---Main" stroke="none" stroke-width="1" fill="none" fill-rule="evenodd">
        <g id="01-Home" transform="translate(-803.000000, -1994.000000)">
            <g id="Brand-Values" transform="translate(0.000000, 1704.000000)">
                <g id="exe_we-produce-value_rgb-copy" transform="translate(803.000000, 290.000000)">
                    <g id="Group" transform="translate(11.191998, 6.060606)" fill-rule="nonzero">
                        <path d="M43.0428504,18.6818182 C44.1909627,12.9743279 44.6588698,7.15091768 44.4367898,1.33333333 L44.368608,0.196969697 L8.50497159,0.196969697 L8.50497159,1.33333333 C8.28323953,7.15126315 8.75371038,12.9749294 9.90648674,18.6818182 C11.9443655,28.7575758 15.9670928,36.5378788 21.7246686,41.5075758 L19.868608,51.5151515 L12.6413352,51.5151515 L12.6413352,62.3636364 L40.2701231,62.3636364 L40.2701231,51.5151515 L33.0731534,51.5151515 L31.2322443,41.4772727 C36.9746686,36.5075758 41.0049716,28.7348485 43.0428504,18.6818182 Z M37.8458807,59.9393939 L15.0655777,59.9393939 L15.0655777,53.8787879 L37.8458807,53.8787879 L37.8458807,59.9393939 Z M30.6110322,51.5151515 L22.2776989,51.5151515 L23.7928504,43.1818182 C24.4421534,43.6428818 25.1147605,44.070215 25.8080019,44.4621212 L26.398911,44.8030303 L26.9973958,44.4621212 C27.7019413,44.0681818 28.3761837,43.6212121 29.0428504,43.1590909 L30.6110322,51.5151515 Z M26.4519413,42 C11.1943655,32.7651515 10.7776989,8.20454545 10.8534564,2.62121212 L42.0580019,2.62121212 C42.1640625,8.20454545 41.7170928,32.7651515 26.4519413,42 Z" id="Shape" fill="#0F283D"></path>
                        <g transform="translate(0.000000, 8.333333)" fill="#E8412D" id="Path">
                            <path d="M21.6867898,33.1742424 C20.8884845,32.4799041 20.1297191,31.7413725 19.4140625,30.9621212 C2.92921402,22.4545455 2.31557765,6.9469697 2.48224432,2.6969697 L8.74739583,2.6969697 C8.6640625,1.84848485 8.60345644,1.03787879 8.55800189,0.272727273 L0.270123106,0.272727273 L0.171638258,1.34848485 C0.171638258,1.58333333 -2.18442235,24.6590909 21.4519413,34.5530303 L21.6867898,33.1742424 Z"></path>
                            <path d="M52.7625473,1.34848485 L52.6337595,0.272727273 L44.3534564,0.272727273 C44.3004261,1.03030303 44.2398201,1.84848485 44.1640625,2.6969697 L50.4140625,2.6969697 C50.5276989,6.90909091 49.7701231,22.4924242 33.5049716,30.9393939 C32.789538,31.7164772 32.030752,32.4524996 31.2322443,33.1439394 L31.4898201,34.5378788 C55.1110322,24.6363636 52.7852746,1.58333333 52.7625473,1.34848485 Z"></path>
                        </g>
                    </g>
                    <rect id="Rectangle" x="0.303030303" y="0" width="74.6893939" height="74.6893939"></rect>
                </g>
            </g>
        </g>
    </g>
</svg>